<svg width="51" height="32" fill="none" xmlns="http://www.w3.org/2000/svg"><path d="M51 0H0v32h51V0z" fill="#fff"/><path d="M49.658 26.667H1.342v4h48.316v-4z" fill="#F7B600"/><path d="M49.658 1.333H1.342v4h48.316v-4zm-29.075 8.682l-5.09 12.001h-3.325L9.662 12.44c-.152-.59-.285-.806-.747-1.055a13.347 13.347 0 0 0-3.098-1.02l.073-.349h5.339c.35 0 .688.122.955.347.266.224.442.535.497.877l1.323 6.945 3.269-8.169h3.31zM33.6 18.099c.014-3.177-4.431-3.342-4.401-4.765 0-.43.422-.887 1.332-1.003a5.979 5.979 0 0 1 3.099.535l.551-2.546a8.569 8.569 0 0 0-2.94-.53c-3.106 0-5.284 1.631-5.311 3.968-.019 1.727 1.562 2.689 2.756 3.265 1.195.577 1.636.967 1.63 1.491 0 .805-.977 1.162-1.88 1.175a6.637 6.637 0 0 1-3.216-.758l-.57 2.63c.735.334 2.09.622 3.494.638 3.304 0 5.463-1.611 5.472-4.107l-.016.007zm8.222 3.912h2.906L42.201 10.01h-2.718a1.443 1.443 0 0 0-.806.236 1.417 1.417 0 0 0-.533.644l-4.716 11.118h3.3l.656-1.792h4.031l.407 1.794zm-3.508-4.253l1.654-4.506.951 4.506h-2.605zM25.09 10.01l-2.605 12.007h-3.152l2.598-12 3.159-.007z" fill="#1A1F71"/></svg>