<svg xmlns="http://www.w3.org/2000/svg" viewBox="0 0 146.8 120.41"><g data-name="Layer 2"><g data-name="Layer 1"><path fill="none" d="M0 0h146.8v120.41H0z"/><g data-name="&lt;Group&gt;"><path fill="#ff5f00" d="M57.65 22.85h31.5v56.61h-31.5z"/><path data-name="&lt;Path&gt;" d="M59.65 51.16A35.94 35.94 0 0 1 73.4 22.85a36 36 0 1 0 0 56.61 35.94 35.94 0 0 1-13.75-28.3z" fill="#eb001b"/><path d="M131.65 51.16a36 36 0 0 1-58.25 28.3 36 36 0 0 0 0-56.61 36 36 0 0 1 58.25 28.3zm-3.44 22.3V72.3h.47v-.24h-1.19v.24h.51v1.16zm2.31 0v-1.4h-.36l-.42 1-.42-1H129v1.4h.26v-1.05l.39.91h.27l.39-.91v1.06z" fill="#f79e1b"/></g></g></g></svg>